<?xml version="1.0" encoding="UTF-8" standalone="no"?>
<!-- Created with Inkscape (http://www.inkscape.org/) -->

<svg
   xmlns:dc="http://purl.org/dc/elements/1.1/"
   xmlns:cc="http://creativecommons.org/ns#"
   xmlns:rdf="http://www.w3.org/1999/02/22-rdf-syntax-ns#"
   xmlns:svg="http://www.w3.org/2000/svg"
   xmlns="http://www.w3.org/2000/svg"
   xmlns:sodipodi="http://sodipodi.sourceforge.net/DTD/sodipodi-0.dtd"
   xmlns:inkscape="http://www.inkscape.org/namespaces/inkscape"
   id="svg2"
   version="1.1"
   inkscape:version="0.48.4 r9939"
   width="744.095"
   height="1052.3625"
   xml:space="preserve"
   sodipodi:docname="cover.pdf"><metadata
     id="metadata8"><rdf:RDF><cc:Work
         rdf:about=""><dc:format>image/svg+xml</dc:format><dc:type
           rdf:resource="http://purl.org/dc/dcmitype/StillImage" /><dc:title></dc:title></cc:Work></rdf:RDF></metadata><defs
     id="defs6"><clipPath
       clipPathUnits="userSpaceOnUse"
       id="clipPath22"><path
         d="m 494.762,817.23 71.863,0 0,-31.129 -71.863,0 0,31.129 z"
         id="path24" /></clipPath><clipPath
       clipPathUnits="userSpaceOnUse"
       id="clipPath30"><path
         d="M 0,0 596,0 596,842 0,842 0,0 z"
         id="path32" /></clipPath><clipPath
       clipPathUnits="userSpaceOnUse"
       id="clipPath34"><path
         d="M 0,0 596,0 596,842 0,842 0,0 z"
         id="path36" /></clipPath><clipPath
       clipPathUnits="userSpaceOnUse"
       id="clipPath38"><path
         d="M 0,0 596,0 596,842 0,842 0,0 z"
         id="path40" /></clipPath><clipPath
       clipPathUnits="userSpaceOnUse"
       id="clipPath80"><path
         d="M 0,0 596,0 596,842 0,842 0,0 z"
         id="path82" /></clipPath></defs><sodipodi:namedview
     pagecolor="#ffffff"
     bordercolor="#666666"
     borderopacity="1"
     objecttolerance="10"
     gridtolerance="10"
     guidetolerance="10"
     inkscape:pageopacity="0"
     inkscape:pageshadow="2"
     inkscape:window-width="1920"
     inkscape:window-height="1058"
     id="namedview4"
     showgrid="false"
     inkscape:zoom="1.1576959"
     inkscape:cx="546.82832"
     inkscape:cy="234.82445"
     inkscape:window-x="1358"
     inkscape:window-y="-8"
     inkscape:window-maximized="1"
     inkscape:current-layer="g90" /><g
     id="g10"
     inkscape:groupmode="layer"
     inkscape:label="cover"
     transform="matrix(1.25,0,0,-1.25,0,1052.3625)"><g
       id="g12"><path
         d="m 0,284.554 520.914,0 0,-157.492 -520.914,0 0,157.492 z"
         style="fill:#635c5c;fill-opacity:1;fill-rule:nonzero;stroke:none"
         id="path14" /><path
         d="m 69.578,48.745 0,-22.714 4.926,0 0,22.679 5.469,0 0,-22.679 15.668,0 0,22.441 5.574,0 0,-22.434 5.168,0 0,22.434 5.64,0 0,-22.434 5.168,0 0,27.633 -26.511,0 0,-22.609 -5.676,0 0,22.574 -20.113,0 0,-4.891 4.687,0"
         style="fill:none;stroke:#848484;stroke-opacity:1;stroke-width:1;stroke-linecap:butt;stroke-linejoin:miter;stroke-miterlimit:4;stroke-dasharray:none"
         id="path16" /></g><g
       id="g18"><g
         id="g20"
         clip-path="url(#clipPath22)"><g
           id="g26"
           transform="translate(0,-0.109985)"><g
             id="g28" /><g
             id="g42"><g
               clip-path="url(#clipPath30)"
               id="g44"><g
                 id="g46"><g
                   id="g48"><g
                     id="g50" /><g
                     id="g52"><g
                       clip-path="url(#clipPath34)"
                       id="g54"><g
                         id="g56" /><g
                         id="g58"><g
                           id="g60"><g
                             id="g62" /><g
                             id="g64"><g
                               clip-path="url(#clipPath38)"
                               id="g66"><g
                                 id="g68" /><g
                                 id="g70"><path
                                   d="m 498.094,790.246 c 2.84,0.34 17.5,0.164 17.633,5.613 l 0,-0.132 -0.067,0.461 0.067,-0.196 -0.133,0.395 0.066,-0.133 c -2.75,3.902 -13.441,5.101 -16.176,8.781 -0.066,0.067 -0.066,0.133 -0.132,0.133 l -0.2,0.395 c 0,0.07 -0.066,0.132 -0.066,0.265 l -0.066,0.332 c -0.063,0.067 -0.063,0.133 -0.063,0.195 0.023,9.106 26.504,11.02 30.238,3.899 0.063,0 0.063,-0.066 0.063,-0.133 0.996,-1.422 0.449,-4.414 0.133,-6.008 -0.903,-4.789 -2.688,-10.347 -2.11,-15.254 l -2.246,-0.129 c -0.359,4.829 0.817,9.79 1.914,14.458 0.239,1.437 1.137,4.519 0.395,5.941 L 527.41,809 c -2.801,4.141 -11.816,3.391 -16.109,3.035 -1.875,-0.101 -10.492,-2.402 -10.102,-5.613 l -0.066,0.199 0.066,-0.328 -0.066,0.262 0.199,-0.328 -0.133,0.195 c 0.692,-1.551 6.86,-3.352 8.121,-4.027 2.293,-0.868 7.09,-2.657 8.188,-5.016 0.066,-0.066 0.066,-0.133 0.133,-0.199 l 0.132,-0.395 c 0.063,-0.066 0.063,-0.199 0.063,-0.265 l 0.066,-0.461 c 0,0 0,-0.067 0.067,-0.133 -0.356,-7.86 -14.879,-7.36 -19.809,-7.86"
                                   style="fill:#0065bd;fill-opacity:1;fill-rule:nonzero;stroke:none"
                                   id="path72" /></g></g></g></g></g></g></g></g></g></g></g></g></g></g><g
       id="g74"><g
         id="g76"
         transform="translate(0,-0.109985)"><g
           id="g78" /><g
           id="g84"><g
             clip-path="url(#clipPath80)"
             id="g86"><g
               id="g88" /><g
               id="g90"><path
   d="m 522.461,800.879 c 6.766,1.004 13.84,0.754 20.664,0.394 3.348,-0.375 6.031,0.934 8.582,0.461 0.066,0 0.133,0 0.199,-0.066 l 0.395,-0.129 c 0.066,-0.066 0.133,-0.066 0.199,-0.133 l 0.328,-0.199 c 0.07,-0.066 0.07,-0.066 0.133,-0.133 l 0.598,-0.594 0.195,-0.261 0.266,-0.598 c 0,-0.062 0.066,-0.129 0.066,-0.195 l 0.133,-0.465 c 0.062,-0.063 0.062,-0.129 0.062,-0.129 0.469,-3.09 -1.277,-6.512 -0.926,-10.102 l -2.175,-0.132 c -0.434,3.914 1.3,6.84 0.925,9.836 l 0.067,-0.133 -0.199,0.465 0.066,-0.133 -0.133,0.328 -0.133,0.133 0,0.133 -0.332,0.265 0.133,-0.133 -0.328,0.262 0.195,-0.129 -0.328,0.129 0.133,-0.062 c -2.207,0.332 -5.055,-0.879 -8.254,-0.465 -6.66,0.301 -13.605,0.633 -20.203,-0.395"
   style="fill:#0065bd;fill-opacity:1;fill-rule:nonzero;stroke:none"
   id="path92" /><path
   d="m 530.582,788.598 c 0.195,3.937 2.004,14.414 5.348,17.363 0.062,0 0.062,0.066 0.129,0.066 l 0.265,0.2 c 0,0 0.067,0 0.133,0.062 l 0.262,0.07 c 0.066,0.063 0.133,0.063 0.199,0.063 l 0.266,0 c 0.132,0.066 0.261,0.066 0.394,0 l 0.195,-0.063 c 0.137,0 0.27,-0.07 0.399,-0.132 l 0.133,-0.133 c 0.133,-0.067 0.199,-0.133 0.199,-0.199 1.508,-2.024 1.859,-4.637 2.574,-6.997 0.57,-2.171 1.074,-4.48 1.781,-6.605 0.129,-0.418 0.77,-2.254 1.125,-2.508 l -0.132,0.133 0.199,-0.266 -0.199,0.2 0.261,-0.133 -0.394,0.133 0.265,-0.067 -0.332,0.067 0.266,0 0.066,0.066 -0.132,-0.066 0.332,0.265 -0.133,-0.133 c 3.16,3.961 0.633,11.079 1.121,15.778 l 2.18,0 c -0.383,-5.875 2.273,-12.082 -1.653,-17.297 -0.066,0 -0.133,-0.067 -0.133,-0.133 l -0.394,-0.262 c 0,0 -0.067,-0.066 -0.133,-0.066 l -0.328,-0.199 -0.332,-0.067 -0.395,-0.066 -0.199,-0.067 c -0.066,0 -0.199,0 -0.332,0.067 l -0.195,0 c -0.133,0.066 -0.266,0.133 -0.332,0.199 l -0.266,0.133 c -0.062,0 -0.129,0.066 -0.195,0.133 l -0.199,0.261 c -0.067,0 -0.067,0.067 -0.129,0.133 -1.555,2.395 -1.961,5.59 -2.84,8.254 -0.52,1.844 -1.274,5.992 -2.445,7.656 l 0.199,-0.128 -0.199,0.128 0.398,-0.195 -0.199,0.067 0.394,-0.067 -0.195,0 0.262,0.067 -0.262,-0.067 0.195,0.067 -0.261,-0.133 0.132,0.066 c -0.882,-0.652 -1.421,-2.316 -1.918,-3.301 -1.464,-4.007 -2.308,-8.23 -2.64,-12.48"
   style="fill:#0065bd;fill-opacity:1;fill-rule:nonzero;stroke:none"
   id="path94" /><path
   d="m 562.469,800.086 c -1.313,-0.734 -3.492,-1.711 -4.293,-3.106 l 0.066,0.133 -0.129,-0.328 0.063,0.133 -0.133,-0.332 0.07,0.199 0,-0.332 -0.07,0.199 0.07,-0.398 0,0.199 c 0.039,-1.754 6.176,-5.883 7.262,-6.734 l -1.32,-1.781 c -1.996,1.57 -7.508,5.144 -8.055,7.855 0,0.066 -0.066,0.133 -0.066,0.199 l -0.067,0.328 0,0.2 0.067,0.398 0,0.195 0.066,0.332 c 0.066,0.067 0.066,0.129 0.066,0.129 l 0.133,0.399 c 0.063,0 0.063,0.066 0.063,0.132 0.984,1.727 3.527,3 5.152,3.961"
   style="fill:#0065bd;fill-opacity:1;fill-rule:nonzero;stroke:none"
   id="path96" /><path
   d="m 550.391,808.074 c 0,0.989 0.789,1.781 1.781,1.781 0.988,0 1.781,-0.792 1.781,-1.781 0,-0.988 -0.793,-1.781 -1.781,-1.781 -0.992,0 -1.781,0.793 -1.781,1.781"
   style="fill:#0065bd;fill-opacity:1;fill-rule:evenodd;stroke:none"
   id="path98" /><path
   d="m 549.859,808.008 0,0.461 c 0.067,0.066 0.067,0.066 0.067,0.133 l 0.066,0.332 c 0.063,0 0.063,0.062 0.063,0.062 l 0.203,0.332 0,0.067 0.262,0.261 c 0,0.071 0,0.071 0.066,0.071 l 0.266,0.261 c 0,0 0.062,0 0.062,0.067 l 0.332,0.133 0.063,0.066 0.332,0.066 c 0.066,0 0.066,0.067 0.132,0.067 l 0.86,0 0.066,-0.067 0.328,-0.066 c 0.067,0 0.067,-0.066 0.133,-0.066 l 0.266,-0.133 c 0.066,-0.067 0.066,-0.067 0.129,-0.067 l 0.265,-0.261 0.067,-0.071 c 0.332,-0.41 0.433,-0.543 0.593,-1.054 l 0,-0.133 0.067,-0.328 0,-0.133 -0.067,-0.328 0,-0.133 -0.132,-0.332 0,-0.133 -0.196,-0.262 c 0,-0.066 -0.066,-0.066 -0.066,-0.132 l -0.199,-0.266 c -0.067,0 -0.067,0 -0.067,-0.063 l -0.265,-0.199 c -0.063,0 -0.063,-0.066 -0.129,-0.066 l -0.266,-0.133 c -0.066,-0.066 -0.066,-0.066 -0.133,-0.066 l -0.328,-0.133 -0.066,0 -0.395,-0.067 -0.133,0 -0.332,0.067 -0.132,0 -0.332,0.133 c 0,0 -0.063,0 -0.063,0.066 l -0.332,0.133 -0.062,0.066 -0.266,0.199 -0.066,0.063 -0.262,0.266 0,0.132 -0.203,0.262 c 0,0.066 0,0.066 -0.063,0.133 l -0.066,0.332 c 0,0 0,0.066 -0.067,0.133 l 0,0.328 z m 1.121,-0.266 0,0.133 0.067,-0.328 0,0.066 0.133,-0.265 -0.067,0.066 0.266,-0.266 -0.133,0.067 0.262,-0.195 -0.063,0.062 0.328,-0.195 -0.132,0.062 0.332,-0.129 -0.067,0.067 0.332,-0.067 -0.133,0 0.395,0.067 -0.133,-0.067 0.332,0.129 -0.066,-0.062 0.262,0.195 -0.067,-0.062 0.266,0.195 -0.067,-0.067 0.2,0.266 -0.067,-0.066 0.195,0.265 -0.062,-0.066 0.133,0.328 -0.071,-0.133 0.071,0.399 0,-0.133 -0.071,0.332 0.071,-0.067 -0.133,0.329 0.062,-0.133 -0.195,0.332 0.067,-0.067 -0.2,0.262 0.067,-0.062 -0.266,0.195 0.067,-0.066 -0.262,0.132 0.066,0 -0.332,0.067 0.133,0 -0.395,0.066 0.133,0 -0.332,-0.066 0.067,0 -0.332,-0.067 0.132,0 -0.328,-0.132 0.063,0.066 -0.262,-0.195 0.133,0.062 -0.266,-0.262 0.067,0.067 -0.133,-0.332 0,0.133 -0.067,-0.329 0,0.067 0,-0.332 0,0.133"
   style="fill:#0065bd;fill-opacity:1;fill-rule:nonzero;stroke:none"
   id="path100" /><text
   transform="matrix(1,0,0,-1,63.7173,212.52552)"
   id="text102"><tspan
     style="font-size:21px;font-variant:normal;font-weight:normal;writing-mode:lr-tb;fill:#ffffff;fill-opacity:1;fill-rule:nonzero;stroke:none;font-family:Arial;-inkscape-font-specification:ArialMT"
     sodipodi:role="line"
     id="tspan104"
     x="0"
     y="0">Name of the Master/Bachelor Thesis</tspan></text>




<text
   transform="scale(1,-1)"
   id="text106"
   x="262.00259"
   y="-259.40067"><tspan
     style="font-size:18px;font-variant:normal;font-weight:normal;writing-mode:lr-tb;fill:#ffffff;fill-opacity:1;fill-rule:nonzero;stroke:none;font-family:Arial;-inkscape-font-specification:ArialMT"
     x="262.00259"
     y="-259.40067"
     sodipodi:role="line"
     id="tspan108">MASTER/BACHELOR THESIS</tspan></text>




<text
   transform="matrix(1,0,0,-1,63.2231,134.52162)"
   id="text110"><tspan
     style="font-size:14px;font-variant:normal;font-weight:normal;writing-mode:lr-tb;fill:#ffffff;fill-opacity:1;fill-rule:nonzero;stroke:none;font-family:Arial;-inkscape-font-specification:ArialMT"
     x="0"
     y="0"
     sodipodi:role="line"
     id="tspan112">Name of the Autors</tspan></text>




<text
   xml:space="preserve"
   style="font-size:4.80000019px;font-style:normal;font-variant:normal;font-weight:normal;font-stretch:normal;text-align:start;line-height:125%;letter-spacing:0px;word-spacing:0px;writing-mode:lr-tb;text-anchor:start;fill:#848484;fill-opacity:1;stroke:none;font-family:Arial;-inkscape-font-specification:Arial"
   x="121.95416"
   y="-47.746761"
   id="text3097"
   sodipodi:linespacing="125%"
   transform="scale(1,-1)"><tspan
     sodipodi:role="line"
     id="tspan3099"
     x="121.95416"
     y="-47.746761"
     style="font-size:8.80000019px;fill:#848484;fill-opacity:1">Chair of Structural Analysis</tspan><tspan
     sodipodi:role="line"
     x="121.95416"
     y="-36.746761"
     id="tspan3101"
     style="font-size:8.80000019px;fill:#848484;fill-opacity:1">Prof. Dr.-Ing. K.-U. Bletzinger</tspan><tspan
     sodipodi:role="line"
     x="121.95416"
     y="-25.746761"
     id="tspan3103"
     style="font-size:8.80000019px;fill:#848484;fill-opacity:1">Technische Universität München</tspan></text>




</g></g></g></g></g></g></svg>