<?xml version="1.0" encoding="UTF-8" standalone="no"?>
<svg
   xmlns:dc="http://purl.org/dc/elements/1.1/"
   xmlns:cc="http://creativecommons.org/ns#"
   xmlns:rdf="http://www.w3.org/1999/02/22-rdf-syntax-ns#"
   xmlns:svg="http://www.w3.org/2000/svg"
   xmlns="http://www.w3.org/2000/svg"
   xmlns:sodipodi="http://sodipodi.sourceforge.net/DTD/sodipodi-0.dtd"
   xmlns:inkscape="http://www.inkscape.org/namespaces/inkscape"
   version="1.0"
   width="1200.000000pt"
   height="389.000000pt"
   viewBox="0 0 1200.000000 389.000000"
   preserveAspectRatio="xMidYMid meet"
   id="svg3690"
   inkscape:version="0.48.4 r9939"
   sodipodi:docname="bead-spring.pdf">
  <defs
     id="defs3700" />
  <sodipodi:namedview
     pagecolor="#ffffff"
     bordercolor="#666666"
     borderopacity="1"
     objecttolerance="10"
     gridtolerance="10"
     guidetolerance="10"
     inkscape:pageopacity="0"
     inkscape:pageshadow="2"
     inkscape:window-width="1535"
     inkscape:window-height="876"
     id="namedview3698"
     showgrid="false"
     inkscape:zoom="0.19466667"
     inkscape:cx="750"
     inkscape:cy="243.125"
     inkscape:window-x="65"
     inkscape:window-y="24"
     inkscape:window-maximized="1"
     inkscape:current-layer="svg3690" />
  <metadata
     id="metadata3692">
Created by potrace 1.11, written by Peter Selinger 2001-2013
<rdf:RDF>
  <cc:Work
     rdf:about="">
    <dc:format>image/svg+xml</dc:format>
    <dc:type
       rdf:resource="http://purl.org/dc/dcmitype/StillImage" />
    <dc:title></dc:title>
  </cc:Work>
</rdf:RDF>
</metadata>
  <g
     transform="translate(0.000000,389.000000) scale(0.100000,-0.100000)"
     fill="#000000"
     stroke="none"
     id="g3694">
    <path
       d="M3806 3518 c-16 -68 -37 -157 -47 -198 -23 -96 -62 -260 -89 -375 -38 -162 -61 -258 -96 -405 -65 -268 -85 -355 -105 -445 -12 -49 -26 -100 -32 -113 l-12 -23 -414 1 c-227 0 -418 3 -422 6 -5 3 -9 26 -9 52 -2 195 -134 411 -320 521 -315 186 -717 52 -874 -292 -62 -136 -76 -318 -35 -470 19 -74 77 -184 130 -247 220 -265 584 -305 851 -95 115 90 187 205 234 372 3 10 108 13 466 15 l463 3 6 45 c4 25 20 99 37 165 29 115 86 354 138 575 26 111 51 217 84 353 10 45 32 138 49 207 16 69 32 140 36 158 8 37 22 42 29 10 3 -13 30 -178 61 -368 30 -190 59 -370 65 -400 5 -30 19 -113 30 -185 11 -71 25 -155 30 -185 5 -30 19 -111 30 -180 41 -257 150 -927 160 -980 5 -30 19 -113 30 -185 11 -71 25 -155 30 -185 5 -30 19 -113 31 -185 12 -72 23 -132 25 -134 2 -2 18 0 36 5 30 9 33 14 34 49 0 22 3 47 7 55 3 8 13 56 22 105 9 50 20 113 25 140 5 28 16 89 24 138 9 48 23 126 32 175 20 114 32 179 44 250 6 31 15 82 20 112 5 30 13 80 19 110 5 30 17 96 26 145 9 50 40 225 70 390 30 165 61 341 70 390 9 50 20 113 25 140 5 28 19 104 30 170 11 66 25 144 30 173 25 136 36 198 45 257 6 37 8 38 21 20 8 -10 14 -29 14 -42 0 -13 14 -108 30 -211 17 -103 46 -286 65 -407 19 -121 40 -247 45 -280 30 -192 57 -359 80 -513 6 -37 15 -92 20 -122 5 -30 14 -84 19 -120 6 -36 19 -121 30 -190 42 -258 71 -441 101 -640 18 -113 34 -211 36 -219 3 -9 14 -12 36 -7 56 11 55 9 89 201 6 33 15 83 20 110 8 42 55 303 134 750 20 114 32 180 45 253 6 31 15 82 20 112 5 30 14 81 20 113 5 31 14 81 20 110 5 28 19 106 30 172 11 66 25 143 30 170 5 28 16 91 25 140 8 50 31 173 50 275 18 102 39 221 46 265 22 140 30 124 68 -125 23 -148 35 -222 51 -320 5 -30 14 -84 19 -120 40 -252 101 -641 132 -830 33 -206 44 -279 59 -378 6 -37 15 -92 20 -122 5 -30 14 -85 20 -123 5 -37 15 -97 20 -135 6 -37 15 -92 20 -122 5 -30 14 -84 19 -120 34 -213 43 -266 51 -274 13 -13 69 4 80 24 5 10 17 58 25 106 22 119 33 184 45 247 5 28 19 106 30 172 11 66 25 144 30 173 13 68 25 137 45 247 9 50 36 200 60 335 54 301 71 393 96 540 11 63 24 139 29 168 6 28 14 76 20 105 5 28 19 106 30 172 11 66 25 144 30 173 24 129 31 171 41 227 6 33 12 62 15 64 10 10 22 -22 28 -73 4 -28 20 -134 37 -236 33 -206 53 -328 75 -470 8 -52 19 -124 25 -160 5 -36 14 -90 19 -120 5 -30 14 -85 20 -122 5 -38 15 -98 20 -135 6 -38 15 -93 20 -123 5 -30 16 -98 24 -150 9 -52 31 -196 51 -320 34 -213 52 -332 76 -480 5 -36 14 -90 19 -120 5 -30 14 -89 21 -130 19 -130 16 -123 52 -116 18 3 39 14 47 25 10 11 31 104 54 232 79 443 89 502 106 592 5 28 19 106 30 172 11 66 25 144 30 173 6 28 14 76 20 105 5 28 18 104 29 167 11 63 29 165 40 225 11 61 47 263 80 450 33 187 65 363 70 390 5 28 15 82 21 120 19 111 20 116 30 110 5 -3 12 -22 15 -43 3 -20 10 -65 15 -99 20 -130 52 -331 85 -538 58 -359 66 -414 81 -505 21 -137 31 -199 54 -345 11 -71 25 -157 30 -190 9 -58 40 -256 60 -380 5 -33 24 -148 41 -255 17 -107 38 -242 48 -300 l17 -105 33 2 c38 1 42 4 46 35 1 12 5 34 8 48 3 14 13 54 21 90 15 68 53 228 86 365 11 44 45 186 75 315 30 129 64 271 75 315 10 44 33 141 51 215 17 74 34 146 38 160 l8 25 455 3 456 2 22 -72 c68 -226 240 -397 455 -453 72 -19 218 -19 292 0 193 50 359 200 436 395 104 266 30 574 -182 758 -33 29 -62 52 -65 52 -4 0 -23 11 -44 23 -125 79 -321 99 -479 49 -138 -44 -296 -180 -364 -314 -31 -60 -69 -188 -69 -230 0 -22 -5 -48 -10 -59 -10 -18 -26 -19 -431 -19 -404 0 -421 1 -460 21 -51 26 -61 18 -78 -63 -8 -35 -26 -115 -41 -178 -62 -258 -166 -693 -185 -775 -8 -33 -26 -109 -40 -170 -15 -60 -33 -139 -42 -175 -20 -84 -29 -92 -37 -33 -4 26 -32 203 -62 393 -30 190 -61 388 -70 440 -8 52 -18 120 -23 150 -13 75 -35 218 -61 387 -6 38 -15 93 -20 123 -5 30 -14 84 -19 120 -11 68 -51 316 -96 600 -14 91 -35 221 -46 290 -10 69 -23 148 -28 176 -7 33 -6 65 1 93 12 47 7 56 -37 65 -26 5 -32 2 -47 -24 -11 -20 -15 -41 -12 -60 4 -16 2 -50 -4 -77 -13 -61 -36 -185 -157 -868 -20 -114 -32 -180 -45 -252 -6 -32 -15 -83 -20 -113 -5 -30 -14 -81 -20 -112 -5 -32 -14 -82 -20 -110 -5 -29 -19 -107 -30 -173 -11 -66 -25 -144 -30 -172 -16 -85 -28 -152 -45 -248 -8 -49 -26 -148 -39 -220 -14 -71 -34 -186 -46 -255 -28 -163 -42 -220 -52 -214 -4 3 -8 21 -8 40 0 20 -9 88 -20 152 -11 64 -24 146 -29 182 -6 36 -19 121 -30 190 -38 238 -96 601 -136 860 -9 52 -20 120 -25 150 -5 30 -14 85 -20 123 -5 37 -15 97 -20 135 -6 37 -15 92 -20 122 -5 30 -14 84 -19 120 -6 36 -20 124 -31 195 -11 72 -25 157 -30 190 -5 33 -19 119 -30 190 -15 89 -19 148 -15 188 6 53 5 57 -13 57 -11 0 -27 3 -35 6 -23 8 -40 -31 -48 -111 -4 -38 -12 -96 -18 -127 -17 -89 -28 -153 -51 -283 -11 -66 -25 -144 -30 -172 -13 -69 -25 -138 -45 -248 -9 -49 -36 -200 -60 -335 -24 -135 -51 -285 -60 -335 -9 -49 -20 -112 -25 -140 -5 -27 -19 -104 -30 -170 -11 -66 -25 -144 -30 -172 -6 -29 -14 -77 -20 -105 -5 -29 -19 -107 -30 -173 -11 -66 -25 -142 -30 -170 -5 -27 -18 -104 -30 -170 -11 -66 -26 -138 -32 -160 l-11 -40 -8 40 c-4 22 -12 72 -18 110 -21 137 -52 332 -72 455 -19 123 -29 183 -49 318 -6 37 -15 92 -20 122 -5 30 -14 85 -20 123 -13 87 -23 147 -64 407 -41 253 -70 438 -97 610 -11 69 -24 154 -30 190 -5 36 -14 90 -19 120 -5 30 -14 87 -20 125 -6 39 -16 95 -21 125 -8 41 -8 68 1 99 13 48 9 56 -35 65 -27 6 -32 3 -49 -28 -10 -19 -16 -42 -12 -51 3 -9 -14 -127 -39 -263 -24 -136 -51 -287 -60 -337 -9 -49 -20 -112 -25 -140 -5 -27 -19 -104 -30 -170 -11 -66 -25 -144 -30 -172 -6 -29 -14 -77 -20 -105 -5 -29 -18 -105 -29 -168 -11 -63 -32 -180 -46 -260 -137 -768 -148 -827 -165 -920 -5 -25 -13 -72 -19 -105 -24 -138 -33 -175 -42 -180 -5 -4 -9 10 -9 29 0 19 -4 57 -9 83 -5 26 -14 82 -21 123 -6 41 -26 170 -45 285 -18 116 -43 271 -54 345 -12 74 -31 191 -42 260 -11 69 -24 152 -29 185 -5 33 -19 119 -30 190 -11 72 -25 157 -30 190 -8 53 -32 205 -60 380 -5 33 -23 143 -39 245 -70 430 -73 454 -67 518 6 57 5 62 -13 62 -11 0 -26 2 -34 6 -20 7 -51 -45 -49 -82 2 -18 -5 -72 -13 -120 -9 -49 -20 -111 -25 -139 -48 -272 -149 -837 -161 -900 -6 -33 -15 -82 -20 -110 -5 -27 -18 -102 -29 -165 -23 -133 -38 -217 -50 -280 -5 -25 -13 -73 -19 -107 -23 -131 -33 -190 -42 -238 -5 -27 -34 -189 -64 -360 -30 -171 -60 -331 -66 -357 -12 -52 -29 -56 -29 -7 0 16 -9 83 -20 147 -10 64 -28 176 -40 247 -20 126 -29 182 -50 303 -5 31 -26 154 -45 272 -19 118 -57 355 -85 525 -28 171 -59 366 -70 435 -11 69 -25 151 -30 183 -6 31 -14 83 -20 115 -5 31 -19 116 -30 187 -11 72 -25 155 -30 185 -5 30 -17 102 -26 160 -14 91 -19 108 -42 127 -49 41 -55 34 -86 -99z"
       id="path3696" />
  </g>
</svg>
